# xmcd CD database file
#
# Track frame offsets:
#	150
#	16592
#	35562
#	50155
#	72652
#	89525
#	103205
#	117040
#	135067
#	149015
#	163410
#	184472
#	203722
#
# Disc length: 2992 seconds
#
# Revision: 0
# Processed by: cddbd v1.5.2PL0 Copyright (c) Steve Scherf et al.
# Submitted via: CDex 1.70beta2
#
DISCID=c30bae0d
DTITLE=Warren Collits - Outback Survivor
DYEAR=1996
DGENRE=Country
TTITLE0=Outback Survivor
TTITLE1=Great Big Land
TTITLE2=Have Mercy
TTITLE3=Black Tracker
TTITLE4=Big Trouble
TTITLE5=Don't Go North
TTITLE6=Gunbarrell Run
TTITLE7=Rainy Day
TTITLE8=Get A Bit O' That
TTITLE9=Harley Davidson Soul
TTITLE10=Legend
TTITLE11=Southern Crosses
TTITLE12=Here For A Good Time
EXTD=YEAR: 1996
EXTT0=
EXTT1=
EXTT2=
EXTT3=
EXTT4=
EXTT5=
EXTT6=
EXTT7=
EXTT8=
EXTT9=
EXTT10=
EXTT11=
EXTT12=
PLAYORDER=
